<?xml version="1.0" encoding="utf-8"?>
<!-- Generator: Adobe Illustrator 16.0.0, SVG Export Plug-In . SVG Version: 6.00 Build 0)  -->
<!DOCTYPE svg PUBLIC "-//W3C//DTD SVG 1.1//EN" "http://www.w3.org/Graphics/SVG/1.1/DTD/svg11.dtd">
<svg version="1.1" id="Layer_1" xmlns="http://www.w3.org/2000/svg" xmlns:xlink="http://www.w3.org/1999/xlink" x="0px" y="0px"
	 width="60px" height="39px" viewBox="0 0 60 39" enable-background="new 0 0 60 39" xml:space="preserve">
<g enable-background="new    ">
	<path fill="#FFFFFF" d="M29.201,5.45c3.733,3.382,5.598,8.085,5.598,14.108c0,6.024-1.811,10.792-5.432,14.301
		c-3.622,3.512-9.166,5.268-16.63,5.268H-0.125V0.377H13.18C20.127,0.377,25.467,2.068,29.201,5.45z M28.203,19.724
		c0-8.869-5.082-13.304-15.244-13.304H6.417v26.553h7.262c4.693,0,8.288-1.117,10.782-3.354
		C26.956,27.385,28.203,24.086,28.203,19.724z"/>
</g>
<g enable-background="new    ">
	<path fill="#FFFFFF" d="M45.943,39.127H28.98V0.377h15.079c2.623,0,4.887,0.314,6.791,0.942c1.902,0.629,3.316,1.479,4.24,2.55
		c1.773,1.996,2.66,4.25,2.66,6.763c0,3.03-0.961,5.285-2.882,6.763c-0.702,0.519-1.183,0.841-1.441,0.97
		c-0.259,0.131-0.721,0.343-1.386,0.638c2.402,0.519,4.314,1.6,5.738,3.243c1.422,1.645,2.133,3.688,2.133,6.127
		c0,2.697-0.924,5.08-2.771,7.15C54.96,37.926,51.228,39.127,45.943,39.127z M35.521,16.454h8.314c4.73,0,7.096-1.607,7.096-4.822
		c0-1.848-0.572-3.179-1.718-3.992c-1.146-0.812-2.92-1.219-5.321-1.219h-8.371V16.454z M35.521,33.084h10.256
		c2.401,0,4.24-0.379,5.516-1.137c1.274-0.756,1.912-2.189,1.912-4.295c0-3.438-2.754-5.156-8.26-5.156h-9.424V33.084z"/>
</g>
</svg>
